<svg xmlns="http://www.w3.org/2000/svg" xmlns:xlink="http://www.w3.org/1999/xlink" viewBox="0 0 401 401" height="40" width="40">
  <g id="avatar">
    <g id="yan">
      <path d="M 201 201 A 100 100 0 0 0 201 1 A 200 200 0 0 0 27.8 301 A 100 100 0 0 1 201 201 Z" stroke="black" fill="white" />
      <circle r="30" cx="201" cy="101" stroke="black" fill="black" />
      <g id="text_yan" transform="translate(80,76)">
        <path d="M38.96 9.6C38.9867 8.4 38.84 7.12 38.52 5.76C38.0667 4.85333 37.5867 4.14666 37.08 3.64C36.6 3.13333 36.0933 2.76 35.56 2.52C35.0533 2.28 34.5333 2.13333 34 2.08C33.4667 2.02667 32.9333 2 32.4 2C30.64 2 29.0533 2.38667 27.64 3.16C26.2533 3.93333 25.08 4.93333 24.12 6.16C23.16 7.36 22.4267 8.70666 21.92 10.2C21.4133 11.6667 21.16 13.12 21.16 14.56C21.1867 15.9733 21.4667 17.28 22 18.48C22.56 19.68 23.4 20.6 24.52 21.24C25.6667 21.8533 27.12 22.12 28.88 22.04C30.64 21.9333 32.7467 21.2933 35.2 20.12C36.32 18.52 37.2133 16.8533 37.88 15.12C38.5467 13.36 38.9067 11.52 38.96 9.6ZM39.16 19.32C38.6 19.56 38.0533 19.7867 37.52 20C37.0133 20.2133 36.6933 20.3467 36.56 20.4C36.2133 20.8533 35.7067 21.44 35.04 22.16C34.3733 22.8533 33.6 23.6133 32.72 24.44C31.84 25.2667 30.88 26.1333 29.84 27.04C28.8 27.92 27.7467 28.7733 26.68 29.6C25.6133 30.4267 24.5467 31.2 23.48 31.92C22.44 32.6133 21.4533 33.1867 20.52 33.64C15.6667 36.0133 11.3867 37.1733 7.67999 37.12C5.54666 37.12 3.78666 36.68 2.39999 35.8C1.25333 35.0267 0.506659 34.1467 0.159992 33.16C-7.6592e-06 32.4667 -0.013341 31.6667 0.119992 30.76C0.226659 30.1733 0.413326 29.5733 0.679992 28.96C0.946659 28.3467 1.25333 27.7733 1.59999 27.24C1.97333 26.7067 2.37333 26.2267 2.79999 25.8C3.22666 25.3733 3.66666 25.04 4.11999 24.8C4.59999 24.4533 5.13333 24.3067 5.71999 24.36C6.78666 24.36 7.31999 24.76 7.31999 25.56C7.26666 26.0667 7.06666 26.5067 6.71999 26.88C6.37333 27.2267 5.94666 27.4 5.43999 27.4C4.82666 27.3733 4.49333 27.1333 4.43999 26.68C4.41333 26.44 4.33333 26.2933 4.19999 26.24C4.03999 26.2133 3.82666 26.2933 3.55999 26.48C3.29333 26.6667 2.97333 27.0667 2.59999 27.68C2.33333 28.0533 2.13333 28.4267 1.99999 28.8C1.86666 29.1467 1.75999 29.5067 1.67999 29.88C1.59999 30.52 1.61333 31.0667 1.71999 31.52C2.09333 33.3333 3.82666 34.2533 6.91999 34.28C9.79999 34.3067 13.3733 33.56 17.64 32.04C19.0267 31.5333 20.4667 30.92 21.96 30.2C23.4533 29.48 24.92 28.6667 26.36 27.76C27.8 26.8533 29.1867 25.8667 30.52 24.8C31.88 23.7333 33.12 22.6 34.24 21.4C32.6933 22.04 31.32 22.4667 30.12 22.68C28.92 22.8667 27.84 22.9333 26.88 22.88C25.9467 22.8 25.12 22.6133 24.4 22.32C23.7067 22.0267 23.0667 21.6933 22.48 21.32C21.4667 20.7333 20.6 20.0133 19.88 19.16C19.1867 18.3067 18.6533 17.36 18.28 16.32C17.9067 15.2533 17.7067 14.12 17.68 12.92C17.68 11.6933 17.88 10.44 18.28 9.16C19.1067 6.65333 20.4533 4.72 22.32 3.36C24.2133 2 26.52 1.09333 29.24 0.639997C31.6933 0.213331 33.7733 0.399998 35.48 1.2C37.2133 2 38.4667 3.25333 39.24 4.96C40.0133 6.66666 40.2533 8.76 39.96 11.24C39.6667 13.6933 38.7333 16.3733 37.16 19.28L38.92 18.52L45.04 15.92C43.8667 18.2133 43.0667 19.7733 42.64 20.6C42.4267 21.0267 42.2133 21.4533 42 21.88C41.7867 22.28 41.5867 22.6667 41.4 23.04C39.56 26.8 38.64 29.5867 38.64 31.4C38.64 32.9467 39.3467 33.72 40.76 33.72C42.04 33.72 43.12 33.2 44 32.16C44.1867 31.8933 44.36 31.7867 44.52 31.84C44.7867 31.8933 44.7467 32.1467 44.4 32.6C44.08 33.0533 43.5333 33.4933 42.76 33.92C41.8533 34.4267 40.96 34.68 40.08 34.68C39.6 34.68 39.08 34.5733 38.52 34.36C36.8667 33.5067 36.04 32.2267 36.04 30.52C36.04 29.08 36.4933 27.2933 37.4 25.16C37.7467 24.3867 38.3067 23.2933 39.08 21.88C39.48 21.1867 39.84 20.56 40.16 20C40.5067 19.44 40.8267 18.9333 41.12 18.48L39.16 19.32Z" fill="black"/>
        <path d="M53.7084 31.8C53.6551 30.7333 54.6818 28.8267 56.7884 26.08C56.3084 26.24 55.7484 26.4267 55.1084 26.64C54.4951 26.8267 53.8951 26.9867 53.3084 27.12C52.7484 27.2267 52.2418 27.2667 51.7884 27.24C51.3618 27.1867 51.0818 26.9733 50.9484 26.6C50.0684 27.8533 49.1618 29.1067 48.2284 30.36C47.3218 31.5867 46.3751 32.8267 45.3884 34.08C45.2551 34.1067 45.1084 34.1067 44.9484 34.08C44.7884 34.0533 44.6284 34.0133 44.4684 33.96C44.3084 33.9067 44.1751 33.84 44.0684 33.76C43.9618 33.68 43.9084 33.6 43.9084 33.52C43.9351 33.12 45.8151 30.4133 49.5484 25.4C51.1751 23.16 52.4284 21.4667 53.3084 20.32C54.2151 19.1467 54.7484 18.4933 54.9084 18.36C55.0151 18.2533 55.3484 18.2 55.9084 18.2C56.4151 18.1733 56.6951 18.2267 56.7484 18.36C56.8018 18.52 56.2418 19.3867 55.0684 20.96L52.5884 24.36C52.8018 24.52 52.9618 24.7733 53.0684 25.12C52.6684 25.6533 52.5884 26 52.8284 26.16C53.0684 26.2933 53.4418 26.3467 53.9484 26.32C54.4818 26.2667 55.0684 26.1467 55.7084 25.96C56.3484 25.7733 56.8684 25.6 57.2684 25.44C57.4818 25.1733 57.7218 24.88 57.9884 24.56C59.3751 22.6933 60.9218 20.64 62.6284 18.4C62.8418 18.2667 63.0951 18.2 63.3884 18.2C63.7351 18.1733 63.9084 18.2667 63.9084 18.48C63.9084 18.72 63.4151 19.56 62.4284 21C60.8551 23.24 59.9084 24.6267 59.5884 25.16C57.6951 28.0933 56.6684 30.1867 56.5084 31.44C56.3751 32.24 56.6018 32.64 57.1884 32.64C58.2018 32.64 60.0684 31.5333 62.7884 29.32C65.2151 27.3733 66.2018 26.5333 65.7484 26.8C65.8551 26.6667 66.0018 26.6 66.1884 26.6C66.5084 26.6 66.6684 26.7333 66.6684 27C66.6684 27.16 66.5751 27.3333 66.3884 27.52C66.5218 27.6 65.3618 28.56 62.9084 30.4C59.3884 33.0133 56.9484 34.2267 55.5884 34.04C54.1751 33.8533 53.5484 33.1067 53.7084 31.8Z" fill="black"/>      
      </g>
    </g>
    <g id="in">
      <path d="M 201 201 A 100 100 0 0 0 373.2 301 A 200 200 0 0 0 201 1 A 100 100 0 0 1 201 201 Z" stroke="black" fill="black" />
      <circle r="30" cx="290.1" cy="251" stroke="black" fill="white" />
      <g id="text_in" transform="translate(300,175)">
        <path d="M51.76 0.999995C51.84 1.24 50.0533 3.93333 46.4 9.07999C42.1867 14.9733 40.0267 18 39.92 18.16C38.3467 20.56 36.7733 22.9467 35.2 25.32C33.4667 28.0667 32.6 29.96 32.6 31C32.6 31.7467 33 32.12 33.8 32.12C35 32.12 36.0667 31.6933 37 30.84C37.3733 30.4933 37.6533 30.3867 37.84 30.52C38.08 30.7067 37.9867 31.04 37.56 31.52C37.16 32 36.5067 32.44 35.6 32.84C34.6933 33.2133 33.8267 33.4 33 33.4C32.2 33.4 31.6 33.1733 31.2 32.72C30.8 32.2667 30.6 31.6533 30.6 30.88C30.6 29.0133 31.9067 25.9333 34.52 21.64C33.5067 22.6533 32.4667 23.5867 31.4 24.44C24.1733 30.44 18.8 33.44 15.28 33.44C14.6667 33.44 14.12 33.3333 13.64 33.12C12.4133 32.56 11.8 31.56 11.8 30.12C11.8 28.3067 12.6267 26.4667 14.28 24.6C15.5067 23.2133 17.6533 21.28 20.72 18.8C23.4667 16.56 25.4133 14.68 26.56 13.16C28.48 10.6533 29.44 8.29333 29.44 6.07999C29.44 4.55999 28.9067 3.38666 27.84 2.55999C26.7733 1.70666 25.32 1.27999 23.48 1.27999C20.44 1.27999 17.0133 2.34666 13.2 4.47999C10.3467 6.05333 7.88 8.17333 5.8 10.84C3.72 13.5067 2.68 15.8933 2.68 18C2.68 18.8 2.85333 19.4933 3.2 20.08C3.94666 21.3867 5.29333 22.04 7.24 22.04C8.70666 22.04 10.36 21.6933 12.2 21C13.8 20.3867 15.0933 19.6933 16.08 18.92C18.8533 16.8133 20.7067 14.24 21.64 11.2C21.7733 10.72 22 10.4667 22.32 10.44C22.48 10.4133 22.6 10.48 22.68 10.64C22.7867 10.7733 22.8 10.96 22.72 11.2C22.32 12.6133 21.8667 13.7467 21.36 14.6C20.3467 16.3067 18.7733 17.9733 16.64 19.6C15.52 20.4533 14.1333 21.2 12.48 21.84C10.5867 22.5333 8.84 22.88 7.24 22.88C4.78666 22.88 3.05333 22.04 2.04 20.36C1.24 19.0533 0.839996 17.5867 0.839996 15.96C0.839996 13.9867 1.42666 12.0133 2.6 10.04C3.88 7.93333 5.70666 6.05333 8.08 4.39999C12.24 1.49333 16.7067 0.0399933 21.48 0.0399933C24.6267 0.0399933 26.96 0.653327 28.48 1.87999C29.76 2.89333 30.4 4.38666 30.4 6.36C30.4 8.81333 29.5333 11.36 27.8 14C26.8133 15.4933 25.4267 17.12 23.64 18.88C21.2933 21.1733 19.7333 22.76 18.96 23.64C16.4533 26.6 15.2 28.8933 15.2 30.52C15.2 31.5867 15.6933 32.12 16.68 32.12C18.0933 32.12 20.5467 31 24.04 28.76C26.7333 27.0267 29.04 25.3467 30.96 23.72C34.0533 21.1067 36.4267 18.56 38.08 16.08C41.04 11.5467 44.1333 6.86666 47.36 2.03999C47.4667 1.95999 47.9467 1.77333 48.8 1.47999C49.68 1.18666 50.3867 0.999994 50.92 0.919994C51.4267 0.839993 51.7067 0.86666 51.76 0.999995Z" fill="white"/>
        <path d="M49.0991 30.8C49.0457 29.7333 50.0724 27.8267 52.1791 25.08C51.6991 25.24 51.1391 25.4267 50.4991 25.64C49.8857 25.8267 49.2857 25.9867 48.6991 26.12C48.1391 26.2267 47.6324 26.2667 47.1791 26.24C46.7524 26.1867 46.4724 25.9733 46.3391 25.6C45.4591 26.8533 44.5524 28.1067 43.6191 29.36C42.7124 30.5867 41.7657 31.8267 40.7791 33.08C40.6457 33.1067 40.4991 33.1067 40.3391 33.08C40.1791 33.0533 40.0191 33.0133 39.8591 32.96C39.6991 32.9067 39.5657 32.84 39.4591 32.76C39.3524 32.68 39.2991 32.6 39.2991 32.52C39.3257 32.12 41.2057 29.4133 44.9391 24.4C46.5657 22.16 47.8191 20.4667 48.6991 19.32C49.6057 18.1467 50.1391 17.4933 50.2991 17.36C50.4057 17.2533 50.7391 17.2 51.2991 17.2C51.8057 17.1733 52.0857 17.2267 52.1391 17.36C52.1924 17.52 51.6324 18.3867 50.4591 19.96L47.9791 23.36C48.1924 23.52 48.3524 23.7733 48.4591 24.12C48.0591 24.6533 47.9791 25 48.2191 25.16C48.4591 25.2933 48.8324 25.3467 49.3391 25.32C49.8724 25.2667 50.4591 25.1467 51.0991 24.96C51.7391 24.7733 52.2591 24.6 52.6591 24.44C52.8724 24.1733 53.1124 23.88 53.3791 23.56C54.7657 21.6933 56.3124 19.64 58.0191 17.4C58.2324 17.2667 58.4857 17.2 58.7791 17.2C59.1257 17.1733 59.2991 17.2667 59.2991 17.48C59.2991 17.72 58.8057 18.56 57.8191 20C56.2457 22.24 55.2991 23.6267 54.9791 24.16C53.0857 27.0933 52.0591 29.1867 51.8991 30.44C51.7657 31.24 51.9924 31.64 52.5791 31.64C53.5924 31.64 55.4591 30.5333 58.1791 28.32C60.6057 26.3733 61.5924 25.5333 61.1391 25.8C61.2457 25.6667 61.3924 25.6 61.5791 25.6C61.8991 25.6 62.0591 25.7333 62.0591 26C62.0591 26.16 61.9657 26.3333 61.7791 26.52C61.9124 26.6 60.7524 27.56 58.2991 29.4C54.7791 32.0133 52.3391 33.2267 50.9791 33.04C49.5657 32.8533 48.9391 32.1067 49.0991 30.8Z" fill="white"/>
        <path d="M71.4828 29.2C72.0428 29.1733 72.7095 29.0267 73.4828 28.76C74.2828 28.4933 75.0695 28.08 75.8428 27.52C76.6428 26.9333 77.2295 26.16 77.6028 25.2C77.6561 25.0667 77.7095 25 77.7628 25H77.9628C78.0961 25 78.1895 25.08 78.2428 25.24C78.3228 25.3733 78.3361 25.4667 78.2828 25.52C78.1761 25.76 77.9628 26.1733 77.6428 26.76C77.3495 27.32 76.8561 27.8667 76.1628 28.4C75.8961 28.6133 75.4961 28.84 74.9628 29.08C74.4561 29.2933 73.8961 29.4933 73.2828 29.68C72.6695 29.84 72.0295 29.96 71.3628 30.04C70.9361 30.0667 70.5361 30.0667 70.1628 30.04C69.7628 30.36 69.3495 30.6533 68.9228 30.92C68.2295 31.3467 67.5361 31.72 66.8428 32.04C66.1495 32.3333 65.4828 32.56 64.8428 32.72C64.2295 32.88 63.6828 32.96 63.2028 32.96C62.5628 33.0667 62.0295 33.04 61.6028 32.88C61.2028 32.6933 60.8828 32.4267 60.6428 32.08C60.4295 31.7333 60.2961 31.32 60.2428 30.84C60.2161 30.3333 60.2428 29.8 60.3228 29.24C60.4561 28.6533 60.7895 27.8933 61.3228 26.96C61.8828 26.0267 62.7361 24.8533 63.8828 23.44C64.2828 22.96 64.7361 22.4133 65.2428 21.8C65.7761 21.1867 66.3761 20.52 67.0428 19.8C68.2695 18.52 69.0695 17.7467 69.4428 17.48C69.5495 17.4267 69.7228 17.3733 69.9628 17.32C70.2295 17.2933 70.4428 17.2933 70.6028 17.32C70.7628 17.3733 70.8028 17.4533 70.7228 17.56C70.2695 18.1733 69.6695 19.0133 68.9228 20.08C68.2028 21.1467 67.2961 22.44 66.2028 23.96C65.8295 24.5467 65.5095 25.0667 65.2428 25.52C64.9761 25.9467 64.7361 26.3467 64.5228 26.72C64.4428 26.8533 64.2561 27.1733 63.9628 27.68C63.6961 28.16 63.4561 28.68 63.2428 29.24C63.0561 29.7733 62.9628 30.2667 62.9628 30.72C62.9895 31.1467 63.2428 31.3733 63.7228 31.4C64.0695 31.4267 64.4428 31.3867 64.8428 31.28C65.2428 31.1467 65.6295 30.9733 66.0028 30.76C66.4028 30.5467 66.7761 30.3067 67.1228 30.04C67.4695 29.7467 67.7761 29.44 68.0428 29.12C67.3495 28.5067 66.9495 27.8667 66.8428 27.2C66.7361 26.5333 66.8028 25.8933 67.0428 25.28C67.3095 24.6667 67.7095 24.1067 68.2428 23.6C68.7761 23.0933 69.3495 22.6933 69.9628 22.4C70.6028 22.1067 71.2295 21.9467 71.8428 21.92C72.4828 21.8933 73.0161 22.0533 73.4428 22.4C73.7895 22.6933 74.0028 23.08 74.0828 23.56C74.1628 24.04 74.0961 24.6 73.8828 25.24C73.6961 25.8533 73.3495 26.52 72.8428 27.24C72.4161 27.88 71.8561 28.5333 71.1628 29.2H71.4828ZM69.0428 28.36C69.0961 28.3867 69.2561 28.28 69.5228 28.04C69.7895 27.7733 70.0828 27.4533 70.4028 27.08C70.7495 26.7067 71.0828 26.2933 71.4028 25.84C71.7495 25.3867 72.0161 24.96 72.2028 24.56C72.4161 24.16 72.5095 23.8133 72.4828 23.52C72.4828 23.2 72.3095 23 71.9628 22.92C71.5361 22.7867 70.9895 22.88 70.3228 23.2C69.6561 23.4933 69.0961 23.9867 68.6428 24.68C68.1095 25.3733 67.8828 26.0933 67.9628 26.84C68.0428 27.5867 68.4028 28.0933 69.0428 28.36Z" fill="white"/>          
      </g>
    </g>
    <g id="hren">
      <path d="M 201 201 A 100 100 0 0 0 27.8 301 A 200 200 0 0 0 373.2 301 A 100 100 0 0 1 201 201 Z" stroke="black" fill="#00ff00" />
      <circle r="30" cx="114.4" cy="251" stroke="black" fill="yellow" />
      <g id="text_hren" transform="translate(80,295)">
        <path d="M56.4 4.31999C56.7467 4.98666 56.92 5.81333 56.92 6.79999C56.92 8.50666 56.5867 9.98666 55.92 11.24C55.68 11.6933 55.4267 11.8533 55.16 11.72C54.8933 11.6133 54.84 11.3067 55 10.8C55.2667 9.99999 55.4 9.22666 55.4 8.47999C55.4 7.01333 54.96 5.93332 54.08 5.23999C53.6 4.83999 52.96 4.63999 52.16 4.63999C51.4133 4.63999 50.6 4.81332 49.72 5.15999C47.3733 6.09332 44.9333 7.83999 42.4 10.4C40.2133 12.6133 38.3467 15.04 36.8 17.68H40.56L39.84 18.72H36.2C33.2933 23.52 31.84 27.36 31.84 30.24C31.84 31.76 32.32 32.8533 33.28 33.52C33.8133 33.8667 34.4533 34.04 35.2 34.04C36.3733 34.04 37.5867 33.6133 38.84 32.76C39.2667 32.4667 39.5867 32.4267 39.8 32.64C39.9867 32.8533 39.9067 33.1333 39.56 33.48C38.9467 34.0933 38.1733 34.64 37.24 35.12C36.04 35.76 34.9067 36.08 33.84 36.08C33.5733 36.08 33.32 36.0533 33.08 36C31.16 35.68 30.2 34.1467 30.2 31.4C30.2 29.88 30.4667 28.24 31 26.48C27.96 30.08 24.6133 32.8667 20.96 34.84C16.5067 37.24 12.4533 38.44 8.80001 38.44C6.66668 38.44 4.81334 38.0267 3.24001 37.2C1.93334 36.48 1.04001 35.6 0.560009 34.56C0.213342 33.84 0.0400085 33.04 0.0400085 32.16C0.0400085 30.96 0.333342 29.7867 0.920009 28.64C1.48001 27.4933 2.16001 26.68 2.96001 26.2C3.44001 25.88 3.94668 25.72 4.48001 25.72C5.57334 25.72 6.17334 26.12 6.28001 26.92C6.33334 27.4267 6.21334 27.8667 5.92001 28.24C5.65334 28.5867 5.26668 28.76 4.76001 28.76C4.14668 28.76 3.77334 28.5333 3.64001 28.08C3.56001 27.84 3.45334 27.6933 3.32001 27.64C3.16001 27.6133 2.96001 27.6933 2.72001 27.88C2.48001 28.0667 2.22668 28.4533 1.96001 29.04C1.61334 29.8133 1.44001 30.5733 1.44001 31.32C1.44001 31.9067 1.54668 32.4533 1.76001 32.96C2.50668 34.7733 4.44001 35.68 7.56001 35.68C10.4933 35.68 13.8533 34.9067 17.64 33.36C21.56 31.76 24.9867 29.72 27.92 27.24C29.7333 25.72 32 22.88 34.72 18.72H31.08L31.8 17.68H35.4C36.36 16.3467 37.1733 14.8533 37.84 13.2C38.6933 11.1467 39.12 9.31999 39.12 7.71999C39.12 5.77333 38.4667 4.31999 37.16 3.35999C35.88 2.39999 34.2933 1.91999 32.4 1.91999C30.1067 1.91999 27.5867 2.55999 24.84 3.83999C22.4133 4.98666 20.44 6.30666 18.92 7.79999C17.4267 9.29332 16.1867 10.9067 15.2 12.64C14.1067 14.6133 13.56 16.4 13.56 18C13.56 19.0933 13.8133 20.04 14.32 20.84C15.2 22.2 16.5867 22.88 18.48 22.88C20.9067 22.88 23.3467 22.0533 25.8 20.4C27.1867 19.4667 28.36 18.24 29.32 16.72C30.0667 15.52 30.5333 14.4267 30.72 13.44C30.8 12.9333 31 12.68 31.32 12.68C31.6133 12.68 31.7333 12.88 31.68 13.28C31.28 16.24 29.5333 18.8933 26.44 21.24C24.12 23 21.3067 23.88 18 23.88C15.0133 23.88 12.8933 23.0133 11.64 21.28C10.84 20.2133 10.44 18.9333 10.44 17.44C10.44 15.6 11.04 13.6533 12.24 11.6C13.44 9.54666 15.1067 7.66666 17.24 5.95999C19.16 4.41332 21.4667 3.17332 24.16 2.23999C26.7733 1.33332 29.2933 0.87999 31.72 0.87999C34.4667 0.87999 36.5733 1.47999 38.04 2.67999C39.3733 3.71999 40.04 5.29332 40.04 7.39999C40.04 8.91999 39.7067 10.6667 39.04 12.64C43.1733 7.25332 47.24 3.99999 51.24 2.87999C51.96 2.69332 52.6267 2.59999 53.24 2.59999C54.76 2.59999 55.8133 3.17332 56.4 4.31999Z" fill="black"/>
        <path d="M62.93 27.52C62.9833 27.76 61.7167 28.7867 59.13 30.6C57.37 31.8533 56.1567 32.6667 55.49 33.04C53.7567 34.0267 52.13 34.5333 50.61 34.56C48.61 34.64 47.1033 34.3067 46.09 33.56C45.0767 32.8133 44.4233 31.6267 44.13 30C43.8367 30.4533 43.5567 30.8933 43.29 31.32C43.05 31.72 42.8233 32.0933 42.61 32.44C41.4633 34.3067 40.33 36.0667 39.21 37.72C38.09 39.3733 36.97 40.9333 35.85 42.4C32.57 46.7733 30.2767 48.96 28.97 48.96C28.3567 48.96 28.05 48.6 28.05 47.88C28.05 45.7467 31.65 40.4533 38.85 32C39.65 31.04 40.6767 29.8667 41.93 28.48C43.1833 27.0667 44.6767 25.4267 46.41 23.56C47.3433 21.9333 48.0633 20.7067 48.57 19.88C49.0767 19.0267 49.3567 18.56 49.41 18.48C49.57 18.2933 49.97 18.2133 50.61 18.24C51.2767 18.2933 51.5833 18.4 51.53 18.56C51.4767 18.6133 51.1967 19.0533 50.69 19.88C52.3967 18.6 53.9167 17.96 55.25 17.96C55.73 17.96 56.1567 18.04 56.53 18.2C57.4633 18.6533 57.93 19.6133 57.93 21.08C57.93 22.3067 57.6367 23.7467 57.05 25.4C56.7833 26.0933 56.5033 26.7467 56.21 27.36C55.9433 27.9733 55.65 28.5333 55.33 29.04C54.1833 30.8533 52.85 32.2533 51.33 33.24C52.0767 33.24 52.9567 33.04 53.97 32.64C55.57 32 57.1567 31.0533 58.73 29.8C61.3967 27.64 62.5167 26.72 62.09 27.04C62.3033 26.8267 62.49 26.72 62.65 26.72C62.9433 26.72 63.09 26.8533 63.09 27.12C63.09 27.28 63.0367 27.4133 62.93 27.52ZM54.89 18.96C53.77 18.96 51.7567 20.2133 48.85 22.72L45.01 28.64C44.93 29.4933 45.0367 30.3067 45.33 31.08C45.6767 32.0667 46.25 32.56 47.05 32.56C48.65 32.56 50.5967 31 52.89 27.88C54.9967 24.9733 56.05 22.4933 56.05 20.44C56.05 19.4533 55.6633 18.96 54.89 18.96ZM44.41 27.04C42.7833 28.7733 41.25 30.5867 39.81 32.48C38.61 34 37.4367 35.4933 36.29 36.96C35.1433 38.4533 33.97 39.96 32.77 41.48C30.7167 44.2267 29.69 45.9067 29.69 46.52C29.69 46.7867 29.77 46.92 29.93 46.92C30.5967 46.92 32.41 44.96 35.37 41.04C36.6767 39.28 37.8233 37.68 38.81 36.24C39.7967 34.8267 40.6367 33.52 41.33 32.32C41.6233 31.8133 42.0233 31.1333 42.53 30.28C43.0367 29.4 43.6633 28.32 44.41 27.04Z" fill="black"/>
        <path d="M79.3163 26.32C79.5829 26.5333 79.5163 26.88 79.1163 27.36C78.9029 27.7333 77.5163 28.9333 74.9563 30.96C71.5963 33.3333 68.5696 34.52 65.8763 34.52C64.8629 34.52 64.0096 34.3067 63.3163 33.88C62.2229 33.1867 61.6763 32.12 61.6763 30.68C61.6763 28.3067 62.9429 25.8133 65.4763 23.2C67.0229 21.6267 68.7429 20.3333 70.6363 19.32C72.5296 18.3067 74.1163 17.8 75.3963 17.8C76.5963 17.8 77.1963 18.16 77.1963 18.88C77.1963 19.6 76.5829 20.64 75.3563 22C74.2629 23.1733 73.1163 24.1867 71.9163 25.04C69.8629 26.5067 67.6896 27.48 65.3963 27.96C65.1296 28.7867 64.9963 29.52 64.9963 30.16C64.9963 31.1733 65.3296 31.92 65.9963 32.4C66.5829 32.8 67.2763 33 68.0763 33C69.8363 33 71.9296 32.1333 74.3563 30.4C76.4629 28.6667 77.7829 27.4533 78.3163 26.76C78.7696 26.28 79.1029 26.1333 79.3163 26.32ZM75.5563 18.68C74.8363 18.68 73.7963 19.08 72.4363 19.88C70.9963 20.7333 69.6629 21.7867 68.4363 23.04C67.3963 24.1067 66.5296 25.4 65.8363 26.92C67.6496 26.44 69.4763 25.56 71.3163 24.28C72.4896 23.4533 73.5963 22.5067 74.6363 21.44C75.7029 20.3733 76.2363 19.6 76.2363 19.12C76.2363 18.8267 76.0096 18.68 75.5563 18.68Z" fill="black"/>
        <path d="M82.8725 31.8C82.8192 30.7333 83.8458 28.8267 85.9525 26.08C85.4725 26.24 84.9125 26.4267 84.2725 26.64C83.6592 26.8267 83.0592 26.9867 82.4725 27.12C81.9125 27.2267 81.4058 27.2667 80.9525 27.24C80.5258 27.1867 80.2458 26.9733 80.1125 26.6C79.2325 27.8533 78.3258 29.1067 77.3925 30.36C76.4858 31.5867 75.5392 32.8267 74.5525 34.08C74.4192 34.1067 74.2725 34.1067 74.1125 34.08C73.9525 34.0533 73.7925 34.0133 73.6325 33.96C73.4725 33.9067 73.3392 33.84 73.2325 33.76C73.1258 33.68 73.0725 33.6 73.0725 33.52C73.0992 33.12 74.9792 30.4133 78.7125 25.4C80.3392 23.16 81.5925 21.4667 82.4725 20.32C83.3792 19.1467 83.9125 18.4933 84.0725 18.36C84.1792 18.2533 84.5125 18.2 85.0725 18.2C85.5792 18.1733 85.8592 18.2267 85.9125 18.36C85.9658 18.52 85.4058 19.3867 84.2325 20.96L81.7525 24.36C81.9658 24.52 82.1258 24.7733 82.2325 25.12C81.8325 25.6533 81.7525 26 81.9925 26.16C82.2325 26.2933 82.6058 26.3467 83.1125 26.32C83.6458 26.2667 84.2325 26.1467 84.8725 25.96C85.5125 25.7733 86.0325 25.6 86.4325 25.44C86.6458 25.1733 86.8858 24.88 87.1525 24.56C88.5392 22.6933 90.0858 20.64 91.7925 18.4C92.0058 18.2667 92.2592 18.2 92.5525 18.2C92.8992 18.1733 93.0725 18.2667 93.0725 18.48C93.0725 18.72 92.5792 19.56 91.5925 21C90.0192 23.24 89.0725 24.6267 88.7525 25.16C86.8592 28.0933 85.8325 30.1867 85.6725 31.44C85.5392 32.24 85.7658 32.64 86.3525 32.64C87.3658 32.64 89.2325 31.5333 91.9525 29.32C94.3792 27.3733 95.3658 26.5333 94.9125 26.8C95.0192 26.6667 95.1658 26.6 95.3525 26.6C95.6725 26.6 95.8325 26.7333 95.8325 27C95.8325 27.16 95.7392 27.3333 95.5525 27.52C95.6858 27.6 94.5258 28.56 92.0725 30.4C88.5525 33.0133 86.1125 34.2267 84.7525 34.04C83.3392 33.8533 82.7125 33.1067 82.8725 31.8Z" fill="black"/>
        <path d="M105.256 30.2C105.816 30.1733 106.483 30.0267 107.256 29.76C108.056 29.4933 108.843 29.08 109.616 28.52C110.416 27.9333 111.003 27.16 111.376 26.2C111.43 26.0667 111.483 26 111.536 26H111.736C111.87 26 111.963 26.08 112.016 26.24C112.096 26.3733 112.11 26.4667 112.056 26.52C111.95 26.76 111.736 27.1733 111.416 27.76C111.123 28.32 110.63 28.8667 109.936 29.4C109.67 29.6133 109.27 29.84 108.736 30.08C108.23 30.2933 107.67 30.4933 107.056 30.68C106.443 30.84 105.803 30.96 105.136 31.04C104.71 31.0667 104.31 31.0667 103.936 31.04C103.536 31.36 103.123 31.6533 102.696 31.92C102.003 32.3467 101.31 32.72 100.616 33.04C99.9229 33.3333 99.2563 33.56 98.6163 33.72C98.0029 33.88 97.4563 33.96 96.9763 33.96C96.3363 34.0667 95.8029 34.04 95.3763 33.88C94.9763 33.6933 94.6563 33.4267 94.4163 33.08C94.2029 32.7333 94.0696 32.32 94.0163 31.84C93.9896 31.3333 94.0163 30.8 94.0963 30.24C94.2296 29.6533 94.5629 28.8933 95.0963 27.96C95.6563 27.0267 96.5096 25.8533 97.6563 24.44C98.0563 23.96 98.5096 23.4133 99.0163 22.8C99.5496 22.1867 100.15 21.52 100.816 20.8C102.043 19.52 102.843 18.7467 103.216 18.48C103.323 18.4267 103.496 18.3733 103.736 18.32C104.003 18.2933 104.216 18.2933 104.376 18.32C104.536 18.3733 104.576 18.4533 104.496 18.56C104.043 19.1733 103.443 20.0133 102.696 21.08C101.976 22.1467 101.07 23.44 99.9763 24.96C99.6029 25.5467 99.2829 26.0667 99.0163 26.52C98.7496 26.9467 98.5096 27.3467 98.2963 27.72C98.2163 27.8533 98.0296 28.1733 97.7363 28.68C97.4696 29.16 97.2296 29.68 97.0163 30.24C96.8296 30.7733 96.7363 31.2667 96.7363 31.72C96.7629 32.1467 97.0163 32.3733 97.4963 32.4C97.8429 32.4267 98.2163 32.3867 98.6163 32.28C99.0163 32.1467 99.4029 31.9733 99.7763 31.76C100.176 31.5467 100.55 31.3067 100.896 31.04C101.243 30.7467 101.55 30.44 101.816 30.12C101.123 29.5067 100.723 28.8667 100.616 28.2C100.51 27.5333 100.576 26.8933 100.816 26.28C101.083 25.6667 101.483 25.1067 102.016 24.6C102.55 24.0933 103.123 23.6933 103.736 23.4C104.376 23.1067 105.003 22.9467 105.616 22.92C106.256 22.8933 106.79 23.0533 107.216 23.4C107.563 23.6933 107.776 24.08 107.856 24.56C107.936 25.04 107.87 25.6 107.656 26.24C107.47 26.8533 107.123 27.52 106.616 28.24C106.19 28.88 105.63 29.5333 104.936 30.2H105.256ZM102.816 29.36C102.87 29.3867 103.03 29.28 103.296 29.04C103.563 28.7733 103.856 28.4533 104.176 28.08C104.523 27.7067 104.856 27.2933 105.176 26.84C105.523 26.3867 105.79 25.96 105.976 25.56C106.19 25.16 106.283 24.8133 106.256 24.52C106.256 24.2 106.083 24 105.736 23.92C105.31 23.7867 104.763 23.88 104.096 24.2C103.43 24.4933 102.87 24.9867 102.416 25.68C101.883 26.3733 101.656 27.0933 101.736 27.84C101.816 28.5867 102.176 29.0933 102.816 29.36Z" fill="black"/>          
      </g>
    </g>
  </g>
</svg>
